<?xml version="1.0" encoding="UTF-8" standalone="no"?>
<svg
   xmlns:dc="http://purl.org/dc/elements/1.1/"
   xmlns:cc="http://creativecommons.org/ns#"
   xmlns:rdf="http://www.w3.org/1999/02/22-rdf-syntax-ns#"
   xmlns:svg="http://www.w3.org/2000/svg"
   xmlns="http://www.w3.org/2000/svg"
   width="1052"
   height="555"
   viewBox="0 0 278.34167 146.84376"
   version="1.1"
   id="svg6016">
  <defs
     id="defs6010" />
  <metadata
     id="metadata6013">
    <rdf:RDF>
      <cc:Work
         rdf:about="">
        <dc:format>image/svg+xml</dc:format>
        <dc:type
           rdf:resource="http://purl.org/dc/dcmitype/StillImage" />
        <dc:title></dc:title>
      </cc:Work>
    </rdf:RDF>
  </metadata>
  <path
     style="opacity:1;fill:#ffffff;fill-opacity:1;fill-rule:evenodd;stroke:none;stroke-width:30.22896767;stroke-linecap:round;stroke-linejoin:bevel;stroke-miterlimit:4;stroke-dasharray:none;stroke-dashoffset:1.88976383;stroke-opacity:1;paint-order:normal"
     d="M 109.05713,21.953076 H 127.2929 V 40.174115 58.397723 76.621837 94.842352 H 109.05713 V 76.621837 58.397723 40.174115 Z m 36.46897,0 h 18.23579 18.23317 18.2358 18.23629 v 18.221039 h 18.2332 V 21.953076 h 18.23577 v 18.221039 h -18.23577 v 18.223608 h 18.23577 v 18.224114 h -18.23577 -18.2332 v 18.220515 h -18.23629 -18.2358 V 76.621837 58.397723 H 163.76189 V 76.621837 94.842352 H 145.5261 V 76.621837 58.397723 40.174115 Z m 36.46896,36.444647 h 18.2358 V 40.174115 h -18.2358 z m 18.2358,0 v 18.224114 h 18.23629 V 58.397723 Z M 27.161716,22.914984 h 13.814137 c 4.750392,0 8.428099,1.030942 11.032408,3.092248 2.583645,2.061411 3.875524,4.986443 3.875524,8.775948 0,1.457498 -0.177256,2.748558 -0.531659,3.872929 -0.354213,1.103508 -0.854523,2.050711 -1.500408,2.841861 -0.666681,0.791246 -1.510172,1.457687 -2.531139,1.999198 -1.020942,0.520774 -2.229464,0.885054 -3.625463,1.09306 3.083669,0.478888 5.490107,1.780144 7.21939,3.903893 0.854287,1.061938 1.499642,2.27977 1.937499,3.654033 0.437405,1.374232 0.656176,2.915311 0.656176,4.622637 0,4.20596 -1.385468,7.381105 -4.156593,9.525623 -2.791994,2.165445 -6.916896,3.248184 -12.375735,3.248184 H 27.161716 Z m 39.597394,0 h 25.908808 v 5.309332 h -9.782064 v 36.01094 h 9.782064 v 5.309342 H 66.75911 v -5.309342 h 9.782591 V 28.224316 H 66.75911 Z m -33.252711,5.184402 v 14.054831 h 7.344409 c 1.583447,0 2.906459,-0.146142 3.969065,-0.437351 1.083318,-0.291335 1.96866,-0.739196 2.656183,-1.342951 1.354307,-1.166068 2.031539,-3.008929 2.031539,-5.52827 0,-1.249333 -0.166927,-2.290343 -0.500152,-3.123222 -0.333393,-0.85371 -0.833177,-1.540826 -1.499881,-2.061157 -1.354333,-1.041264 -3.573137,-1.56188 -6.656754,-1.56188 z m 0,19.176745 v 17.084087 h 7.469454 c 3.646148,0 6.260588,-0.645799 7.844034,-1.936733 1.562679,-1.27007 2.34414,-3.373114 2.34414,-6.308941 0,-3.039893 -0.82315,-5.278156 -2.469158,-6.71479 -1.666801,-1.415896 -4.239577,-2.123623 -7.719016,-2.123623 z m 46.69174,29.189275 v 5.05e-4 c 0.895897,0 1.812665,0.05208 2.750225,0.155926 0.937589,0.08333 1.906602,0.229785 2.906777,0.437855 1.937685,0.395559 4.021283,1.009762 6.250642,1.842767 v 6.402401 c -1.000045,-0.645483 -1.979452,-1.186836 -2.93778,-1.624376 -0.937561,-0.458119 -1.875229,-0.843041 -2.812735,-1.155525 -1.937736,-0.624524 -3.87579,-0.936597 -5.813525,-0.936597 -1.416762,0 -2.739856,0.166658 -3.969038,0.499784 -1.229343,0.333126 -2.281235,0.853489 -3.156336,1.561374 -0.875133,0.707948 -1.520807,1.551432 -1.937498,2.529978 -0.416853,0.978577 -0.625176,2.061378 -0.625176,3.248183 0,1.061875 0.145576,1.957187 0.437118,2.685904 0.312534,0.707916 0.73945,1.322403 1.281323,1.842767 0.645936,0.603818 1.469061,1.123803 2.469156,1.561374 1.020888,0.437255 2.312397,0.832878 3.874997,1.187026 l 3.312887,0.74917 c 2.208489,0.499721 4.094374,1.155714 5.656977,1.967697 1.562679,0.791281 2.854582,1.738861 3.875524,2.842371 2.020984,2.16544 3.031291,5.12204 3.031291,8.86991 0,2.37364 -0.364472,4.40349 -1.093793,6.09001 -0.729187,1.66576 -1.729283,3.04005 -3.000262,4.12285 -1.375101,1.16595 -3.073381,2.04024 -5.094365,2.62344 -2.000219,0.58312 -4.291717,0.87413 -6.875283,0.87413 -1.104245,0 -2.219335,-0.0625 -3.344397,-0.18749 -1.125116,-0.10384 -2.229489,-0.2705 -3.312862,-0.49981 -1.083477,-0.22884 -2.197958,-0.53094 -3.343863,-0.90563 -1.145936,-0.37476 -2.25031,-0.78042 -3.31289,-1.21799 v -6.71479 c 1.208471,0.77038 2.37538,1.43663 3.500417,1.99869 1.125141,0.54138 2.229464,0.9888 3.312887,1.34295 2.12524,0.70773 4.260792,1.0621 6.406663,1.0621 1.562815,0 2.968917,-0.17708 4.219128,-0.53132 1.2709,-0.35399 2.354298,-0.88496 3.250356,-1.59284 0.91666,-0.72881 1.583313,-1.6032 2.000005,-2.62344 0.437459,-1.02027 0.656678,-2.19695 0.656678,-3.52958 0,-1.16594 -0.155904,-2.16491 -0.468621,-2.99778 -0.291656,-0.83288 -0.740192,-1.55137 -1.34436,-2.15513 -0.666703,-0.68711 -1.510172,-1.24927 -2.531139,-1.68681 -1.00007,-0.43722 -2.281285,-0.83237 -3.844018,-1.18652 l -3.375397,-0.78067 c -2.10434,-0.47895 -3.948457,-1.07242 -5.531957,-1.7803 -1.562628,-0.70795 -2.864715,-1.593097 -3.906503,-2.654941 -1.958474,-1.957249 -2.93778,-4.61203 -2.93778,-7.96428 0,-2.123718 0.364554,-4.028634 1.093767,-5.71516 0.729242,-1.686494 1.771001,-3.133638 3.125336,-4.341243 1.333513,-1.186773 2.927411,-2.103422 4.781765,-2.748905 1.8752,-0.645389 4.000518,-0.968098 6.375659,-0.968098 z M 23.442742,77.308542 H 59.039593 V 82.61842 H 44.444764 V 123.9382 H 38.10061 V 82.61842 H 23.442742 Z M 183.88196,106.83602 h 2.30226 v 1.59234 h -2.17725 c -0.37502,0 -0.67704,0.0382 -0.90623,0.11458 -0.22224,0.0694 -0.39577,0.17013 -0.52079,0.30207 -0.27085,0.2847 -0.40611,0.78452 -0.40611,1.49938 v 1.03059 h 4.01038 v 1.48856 h -4.01038 v 10.17104 H 180.257 v -10.17104 h -3.11499 v -1.48856 h 3.11499 v -0.81217 c 0,-1.28399 0.29525,-2.22431 0.88558,-2.82118 0.58337,-0.60382 1.4962,-0.90564 2.73938,-0.90564 z m 19.06449,0 h 4.98998 v 12.0551 c 0,0.86757 0.15998,1.51674 0.47947,1.94705 0.16667,0.22916 0.36448,0.39569 0.59364,0.49982 0.23616,0.10416 0.50375,0.15593 0.80238,0.15593 h 2.23976 v 1.62434 h -2.42728 c -0.55563,0 -1.05594,-0.0868 -1.50041,-0.26009 -0.43754,-0.1736 -0.82294,-0.45502 -1.1563,-0.84367 -0.632,-0.73569 -0.9481,-1.7768 -0.9481,-3.12325 v -10.55622 h -3.07314 z m 19.89791,0 h 1.91684 v 16.1986 h -1.72928 l -0.18755,-1.46792 c -0.15976,0.27776 -0.34059,0.52763 -0.542,0.74971 -0.20139,0.21527 -0.44426,0.40266 -0.72901,0.56228 -0.52782,0.30522 -1.14254,0.45796 -1.84398,0.45796 -0.7362,0 -1.38243,-0.14582 -1.93803,-0.43732 -0.5556,-0.29165 -1.02049,-0.69409 -1.39552,-1.20767 -0.40281,-0.54829 -0.70535,-1.20034 -0.90674,-1.95687 -0.20142,-0.76343 -0.30174,-1.61367 -0.30174,-2.55062 0,-0.92309 0.0969,-1.76316 0.29138,-2.51965 0.20141,-0.76347 0.50732,-1.41552 0.91708,-1.95687 0.40977,-0.54136 0.89939,-0.94396 1.46888,-1.20767 0.56951,-0.27082 1.19098,-0.40636 1.86467,-0.40636 0.7084,0 1.32648,0.1493 1.8543,0.44764 0.53479,0.30554 0.9551,0.74627 1.26069,1.32231 z m -102.35339,0.65575 h 1.97937 l -8.18867,17.5209 h -1.98969 z m 48.47324,0 v 3.88325 h 4.35447 v 1.48855 h -4.35447 v 6.37144 c 0,0.85368 0.16285,1.4539 0.48928,1.80091 0.31948,0.3401 0.8891,0.51014 1.70863,0.51014 h 2.15656 v 1.53038 h -2.34412 c -1.4307,0 -2.44434,-0.28818 -3.04163,-0.86432 -0.59034,-0.56913 -0.88556,-1.56128 -0.88556,-2.97711 v -6.37144 h -3.11499 v -1.48855 h 3.11499 v -3.05044 z m 67.03759,0 h 1.97937 l -8.18867,17.5209 h -1.98969 z m -92.34191,3.60185 c 0.77786,0 1.45798,0.12847 2.04135,0.38518 0.59034,0.25693 1.09404,0.62837 1.51076,1.11424 0.41669,0.48583 0.73278,1.07538 0.94806,1.76941 0.22226,0.68712 0.33326,1.47536 0.33326,2.36373 v 0.93663 h -8.30284 v 0.0625 c 0,1.2701 0.33355,2.25208 1.00025,2.94614 0.31948,0.33313 0.70488,0.5899 1.15631,0.77035 0.45838,0.18055 1.00377,0.27114 1.63577,0.27114 0.63202,0 1.27434,-0.0975 1.92718,-0.29165 0.67366,-0.20138 1.38531,-0.49631 2.13539,-0.88496 v 1.90523 c -0.36809,0.15277 -0.72588,0.28439 -1.07313,0.3955 -0.34725,0.1111 -0.69096,0.20516 -1.03126,0.28123 -0.33336,0.0764 -0.66638,0.13162 -0.99975,0.16634 -0.33337,0.0347 -0.66353,0.0521 -0.98994,0.0521 -0.89592,0 -1.70164,-0.13509 -2.41696,-0.40581 -0.7084,-0.27777 -1.31244,-0.68358 -1.81248,-1.21799 -0.50005,-0.53444 -0.88207,-1.17683 -1.14596,-1.92642 -0.25698,-0.75652 -0.38546,-1.6101 -0.38546,-2.56097 0,-0.97858 0.13187,-1.8356 0.39577,-2.57126 0.26393,-0.74264 0.62848,-1.37439 1.0938,-1.89491 0.507,-0.56219 1.10086,-0.97833 1.78147,-1.24899 0.68062,-0.27776 1.41362,-0.41667 2.19841,-0.41667 z m 12.73019,0 c 0.29863,0 0.59726,0.0126 0.89589,0.0417 0.29864,0.0284 0.59388,0.0694 0.88556,0.12499 0.26392,0.0556 0.53832,0.12815 0.82307,0.21842 0.29168,0.0833 0.583,0.18402 0.8747,0.30207 v 1.87376 c -0.5556,-0.31927 -1.10776,-0.55858 -1.65643,-0.7182 -0.27782,-0.0764 -0.55896,-0.13541 -0.84373,-0.17708 -0.27779,-0.0417 -0.57642,-0.0625 -0.89589,-0.0625 -0.40281,0 -0.76737,0.035 -1.09377,0.10416 -0.31948,0.0694 -0.58711,0.1736 -0.80239,0.31248 -0.43061,0.28471 -0.64583,0.71814 -0.64583,1.30113 0,0.24304 0.0383,0.46532 0.11469,0.6666 0.0833,0.20138 0.20505,0.36403 0.36479,0.48896 0.15972,0.12499 0.42344,0.24998 0.79151,0.37485 0.37505,0.11805 0.90637,0.24304 1.59392,0.37482 l 0.77088,0.14551 c 0.50005,0.0972 0.92714,0.2361 1.28132,0.41668 0.35421,0.18054 0.64946,0.40231 0.88558,0.66606 0.48616,0.53441 0.72953,1.24271 0.72953,2.12416 0,0.59687 -0.10761,1.11717 -0.32292,1.56134 -0.20833,0.43726 -0.51086,0.81224 -0.90674,1.12456 -0.42365,0.33316 -0.92005,0.57923 -1.48956,0.73885 -0.56256,0.15972 -1.18403,0.23957 -1.86465,0.23957 -0.30558,0 -0.62168,-0.0189 -0.94809,-0.0521 -0.31947,-0.0284 -0.62826,-0.0694 -0.92689,-0.12499 -0.27085,-0.0555 -0.59034,-0.13162 -0.95844,-0.22884 -0.36114,-0.0972 -0.7262,-0.20485 -1.09429,-0.32271 v -1.97802 c 0.44449,0.22221 0.82312,0.39553 1.13564,0.52046 0.31253,0.11805 0.61845,0.21874 0.91709,0.30207 0.31947,0.0903 0.62826,0.1594 0.92689,0.208 0.29864,0.0486 0.60796,0.0729 0.92743,0.0729 0.84035,0 1.49623,-0.17361 1.9685,-0.52046 0.24308,-0.18055 0.42053,-0.39215 0.53164,-0.63507 0.11112,-0.24304 0.16636,-0.48952 0.16636,-0.73938 0,-0.48584 -0.20455,-0.87773 -0.6143,-1.17617 -0.40976,-0.30554 -1.05599,-0.54861 -1.93803,-0.72907 l -0.0832,-0.0221 -0.71865,-0.14551 c -0.5209,-0.10416 -0.98629,-0.24304 -1.39606,-0.41668 -0.4028,-0.1736 -0.74312,-0.39878 -1.02094,-0.67638 -0.50697,-0.50667 -0.76053,-1.20426 -0.76053,-2.09266 0,-0.56218 0.0935,-1.05824 0.28108,-1.48856 0.19446,-0.43031 0.47954,-0.79512 0.85457,-1.09356 0.39588,-0.31927 0.86804,-0.54792 1.41671,-0.68671 0.54865,-0.14582 1.16337,-0.21905 1.84399,-0.21905 z m 38.26388,0 c 0.83341,0 1.55572,0.13573 2.1669,0.40636 0.61811,0.26387 1.13535,0.65224 1.55207,1.16584 0.85423,1.05497 1.28132,2.56451 1.28132,4.52867 0,0.9925 -0.10761,1.8737 -0.32292,2.64409 -0.20833,0.77038 -0.52782,1.41621 -0.9584,1.93673 -0.41672,0.51361 -0.93735,0.90213 -1.56242,1.16584 -0.61811,0.26388 -1.33706,0.3955 -2.15655,0.3955 -0.79871,0 -1.51033,-0.12846 -2.1354,-0.38517 -0.61811,-0.26388 -1.14265,-0.65565 -1.57326,-1.17617 -0.43754,-0.54136 -0.76041,-1.19394 -0.96875,-1.95738 -0.20833,-0.77041 -0.31257,-1.64145 -0.31257,-2.61311 0,-1.97108 0.42709,-3.48403 1.28133,-4.539 0.85426,-1.04801 2.09045,-1.5722 3.70865,-1.5722 z m -69.54809,0.28155 h 1.98966 l 3.38574,9.78587 3.39606,-9.78587 h 1.98966 l -4.14572,11.6596 h -2.46916 z m 18.51217,1.34296 c -0.93758,0 -1.70159,0.30522 -2.29192,0.91595 -0.59729,0.61771 -0.95168,1.46454 -1.06279,2.5403 l 6.31315,-0.009 c -0.0139,-0.59687 -0.0939,-1.10701 -0.23973,-1.53038 -0.13891,-0.43031 -0.32262,-0.77767 -0.55182,-1.04142 -0.25002,-0.29134 -0.55932,-0.50998 -0.9274,-0.65571 -0.3681,-0.14583 -0.78111,-0.21842 -1.2395,-0.21842 z m 51.03592,0 c -0.97232,0 -1.70821,0.37785 -2.20825,1.13437 -0.50005,0.76344 -0.7502,1.8845 -0.7502,3.36279 0,1.47833 0.25016,2.59598 0.7502,3.35251 0.50004,0.76343 1.23593,1.1452 2.20825,1.1452 0.97925,0 1.71902,-0.38177 2.21906,-1.1452 0.50005,-0.75653 0.75022,-1.87418 0.75022,-3.35251 0,-1.47829 -0.25018,-2.59935 -0.75022,-3.36279 -0.50004,-0.75652 -1.23981,-1.13437 -2.21906,-1.13437 z m 25.35648,0 c -0.93065,0 -1.62873,0.37785 -2.09405,1.13437 -0.47227,0.76344 -0.70837,1.8845 -0.70837,3.36279 0,1.47833 0.2361,2.59936 0.70837,3.36283 0.24308,0.39559 0.54169,0.68336 0.8959,0.86381 0.35418,0.18055 0.75027,0.27113 1.18781,0.27113 0.93758,0 1.64585,-0.38176 2.12505,-1.1452 0.4792,-0.75652 0.71921,-1.87417 0.71921,-3.3525 0,-1.4783 -0.24001,-2.59936 -0.71921,-3.36279 -0.22223,-0.35399 -0.50679,-0.63157 -0.85405,-0.83285 -0.34725,-0.20138 -0.76757,-0.30144 -1.26066,-0.30144 z"
     id="rect6814-6-7-3-1-2-6-9-1" />
</svg>
