<?xml version="1.0" encoding="UTF-8" standalone="no"?>
<!-- Created with Inkscape (http://www.inkscape.org/) -->

<svg
   xmlns:dc="http://purl.org/dc/elements/1.1/"
   xmlns:cc="http://creativecommons.org/ns#"
   xmlns:rdf="http://www.w3.org/1999/02/22-rdf-syntax-ns#"
   xmlns:svg="http://www.w3.org/2000/svg"
   xmlns="http://www.w3.org/2000/svg"
   xmlns:sodipodi="http://sodipodi.sourceforge.net/DTD/sodipodi-0.dtd"
   xmlns:inkscape="http://www.inkscape.org/namespaces/inkscape"
   width="1000"
   height="529"
   viewBox="0 0 264.58333 139.96405"
   version="1.1"
   id="svg6016"
   inkscape:version="0.92.2 5c3e80d, 2017-08-06"
   sodipodi:docname="bits_logo.svg">
  <defs
     id="defs6010" />
  <sodipodi:namedview
     id="base"
     pagecolor="#ffffff"
     bordercolor="#666666"
     borderopacity="1.0"
     inkscape:pageopacity="0.0"
     inkscape:pageshadow="2"
     inkscape:zoom="0.7"
     inkscape:cx="580.82592"
     inkscape:cy="473.32023"
     inkscape:document-units="mm"
     inkscape:current-layer="g9666"
     showgrid="false"
     fit-margin-top="0"
     fit-margin-left="0"
     fit-margin-right="0"
     fit-margin-bottom="0"
     inkscape:window-width="1920"
     inkscape:window-height="1061"
     inkscape:window-x="0"
     inkscape:window-y="1200"
     inkscape:window-maximized="0"
     showguides="false"
     units="px" />
  <metadata
     id="metadata6013">
    <rdf:RDF>
      <cc:Work
         rdf:about="">
        <dc:format>image/svg+xml</dc:format>
        <dc:type
           rdf:resource="http://purl.org/dc/dcmitype/StillImage" />
        <dc:title></dc:title>
      </cc:Work>
    </rdf:RDF>
  </metadata>
  <g
     inkscape:label="Layer 1"
     inkscape:groupmode="layer"
     id="layer1"
     transform="translate(0.23170507,127.62001)">
    <g
       style="enable-background:new"
       id="g9666"
       transform="matrix(3.0023792,0,0,3.0023792,16.180664,-403.16222)">
      <rect
         style="opacity:1;fill:#ffffff;fill-opacity:0.97741173;stroke:none;stroke-width:1.66534591;stroke-linejoin:bevel;stroke-miterlimit:4;stroke-dasharray:19.98415098, 1.66534592;stroke-dashoffset:16.65345955;stroke-opacity:1;paint-order:stroke markers fill"
         id="rect822"
         width="78.304955"
         height="38.14534"
         x="-0.55665845"
         y="96.596199" />
      <path
         style="opacity:1;fill:#017fd3;fill-opacity:1;fill-rule:evenodd;stroke:none;stroke-width:9.57385731;stroke-linecap:round;stroke-linejoin:bevel;stroke-miterlimit:4;stroke-dasharray:none;stroke-dashoffset:1.88976383;stroke-opacity:1;paint-order:normal"
         d="m -0.67929011,91.869775 -4.78716439,4.787001 v 36.948434 l 4.78716439,4.78717 78.55022711,0.0177 4.787165,-4.78717 V 96.674433 L 77.870937,91.887432 Z M 29.061654,98.824864 h 5.773548 v 5.772736 5.77355 5.77371 5.77257 h -5.773548 v -5.77257 -5.77371 -5.77355 z m 11.546283,0 h 5.773555 5.772727 5.773556 5.773714 v 5.772736 h 5.772735 v -5.772736 h 5.773548 v 5.772736 h -5.773548 v 5.77355 h 5.773548 v 5.77371 h -5.773548 -5.772735 v 5.77257 h -5.773714 -5.773556 v -5.77257 -5.77371 h -5.772727 v 5.77371 5.77257 h -5.773555 v -5.77257 -5.77371 -5.77355 z m 11.546282,11.546286 h 5.773556 v -5.77355 h -5.773556 z m 5.773556,0 v 5.77371 h 5.773714 v -5.77371 z M 3.1330996,99.129613 h 4.3736345 c 1.5040009,0 2.6683839,0.32662 3.4929229,0.979677 0.817997,0.65309 1.227013,1.57979 1.227013,2.78037 0,0.46176 -0.05612,0.87079 -0.168326,1.22701 -0.112146,0.34961 -0.270547,0.6497 -0.475038,0.90035 -0.211075,0.25068 -0.478129,0.46182 -0.801373,0.63338 -0.323236,0.16499 -0.705861,0.2804 -1.147842,0.3463 0.976307,0.15172 1.738199,0.56398 2.2857,1.23682 0.270472,0.33644 0.474795,0.72227 0.613423,1.15766 0.138485,0.43538 0.207749,0.92362 0.207749,1.46453 0,1.33252 -0.438647,2.33846 -1.316001,3.01788 -0.883961,0.68605 -2.1899284,1.02908 -3.9182279,1.02908 H 3.1330996 Z m 12.5367604,0 h 8.202876 v 1.682087 h -3.097057 v 11.40888 h 3.097057 v 1.68209 H 15.66986 v -1.68209 h 3.097224 V 100.8117 H 15.66986 Z M 5.1418624,100.77212 v 4.45281 h 2.3252817 c 0.5013281,0 0.9202014,-0.0463 1.2566284,-0.13856 0.3429848,-0.0923 0.623289,-0.23419 0.8409628,-0.42547 0.4287812,-0.36943 0.6431967,-0.95328 0.6431967,-1.75145 0,-0.39581 -0.05285,-0.72562 -0.158351,-0.98949 -0.105554,-0.27047 -0.2637884,-0.48816 -0.4748708,-0.65301 -0.4287896,-0.32989 -1.1312754,-0.49483 -2.1075661,-0.49483 z m 0,6.07552 v 5.41253 h 2.3648717 c 1.1543912,0 1.9821378,-0.2046 2.4834658,-0.61359 0.4947531,-0.40238 0.7421681,-1.06866 0.7421681,-1.99878 0,-0.96309 -0.260614,-1.67221 -0.7817497,-2.12736 -0.5277186,-0.44858 -1.342274,-0.6728 -2.4438842,-0.6728 z m 14.7828706,9.24766 v 1.6e-4 c 0.283646,0 0.5739,0.0165 0.870737,0.0494 0.296846,0.0264 0.603641,0.0728 0.920302,0.13872 0.613482,0.12532 1.273161,0.31991 1.978989,0.58382 v 2.02839 c -0.31662,-0.2045 -0.626706,-0.37601 -0.930118,-0.51463 -0.296837,-0.14514 -0.593708,-0.26709 -0.890528,-0.36609 -0.613498,-0.19786 -1.227097,-0.29673 -1.840595,-0.29673 -0.448555,0 -0.867454,0.0528 -1.25662,0.15834 -0.389217,0.10554 -0.722252,0.2704 -0.999314,0.49467 -0.277072,0.22429 -0.481496,0.49152 -0.613423,0.80154 -0.131978,0.31003 -0.197934,0.65308 -0.197934,1.02908 0,0.33642 0.04609,0.62007 0.138394,0.85094 0.09895,0.22428 0.234114,0.41896 0.405674,0.58382 0.204507,0.1913 0.465113,0.35604 0.781749,0.49467 0.323219,0.13853 0.732118,0.26387 1.226846,0.37607 l 1.048879,0.23735 c 0.69922,0.15832 1.296302,0.36615 1.791031,0.6234 0.494753,0.25069 0.903777,0.5509 1.227013,0.90051 0.639855,0.68605 0.959724,1.62275 0.959724,2.81014 0,0.75201 -0.115394,1.3951 -0.346301,1.92942 -0.230865,0.52774 -0.547501,0.96314 -0.9499,1.30619 -0.435365,0.36939 -0.97305,0.64638 -1.612905,0.83115 -0.633281,0.18474 -1.358782,0.27694 -2.176754,0.27694 -0.34961,0 -0.702654,-0.0198 -1.058855,-0.0594 -0.356218,-0.0329 -0.705869,-0.0857 -1.048871,-0.15835 -0.343035,-0.0725 -0.695886,-0.16821 -1.058686,-0.28692 -0.36281,-0.11873 -0.712461,-0.24725 -1.04888,-0.38588 v -2.12736 c 0.382609,0.24407 0.752059,0.45515 1.108252,0.63322 0.356226,0.17152 0.705861,0.31327 1.048879,0.42547 0.672863,0.22422 1.348991,0.33649 2.028386,0.33649 0.494796,0 0.939976,-0.0561 1.3358,-0.16833 0.402374,-0.11215 0.745384,-0.28037 1.029081,-0.50464 0.29022,-0.2309 0.501286,-0.50792 0.633213,-0.83115 0.138502,-0.32324 0.207908,-0.69603 0.207908,-1.11823 0,-0.36939 -0.04936,-0.68588 -0.148368,-0.94975 -0.09234,-0.26387 -0.234349,-0.4915 -0.425632,-0.68278 -0.211082,-0.21769 -0.478129,-0.39579 -0.801373,-0.53441 -0.316628,-0.13852 -0.722268,-0.26371 -1.217038,-0.37591 l -1.06867,-0.24733 c -0.666246,-0.15174 -1.250104,-0.33976 -1.751449,-0.56403 -0.494737,-0.22429 -0.906985,-0.50472 -1.236821,-0.84113 -0.620064,-0.62009 -0.930118,-1.46117 -0.930118,-2.52322 0,-0.67283 0.11542,-1.27634 0.346293,-1.81066 0.230882,-0.53431 0.560709,-0.99279 0.989499,-1.37538 0.422198,-0.37599 0.926835,-0.6664 1.513934,-0.8709 0.593699,-0.20447 1.266587,-0.30671 2.01857,-0.30671 z M 1.9556512,116.36242 H 13.225817 v 1.68226 H 8.6050109 v 13.09081 H 6.5964156 V 118.04468 H 1.9556512 Z m 50.7959688,9.35481 h 0.72891 v 0.50448 h -0.689329 c -0.118736,0 -0.214357,0.0121 -0.28692,0.0363 -0.07036,0.022 -0.125303,0.0539 -0.164885,0.0957 -0.08575,0.0902 -0.128577,0.24855 -0.128577,0.47503 v 0.32651 h 1.269711 v 0.4716 h -1.269711 v 3.22236 h -0.606882 v -3.22236 h -0.986224 v -0.4716 h 0.986224 v -0.25731 c 0,-0.40679 0.09348,-0.7047 0.28038,-0.8938 0.1847,-0.1913 0.473706,-0.28692 0.867303,-0.28692 z m 6.035928,0 h 1.579856 v 3.81926 c 0,0.27486 0.05065,0.48053 0.151802,0.61686 0.05277,0.0726 0.115395,0.12536 0.18795,0.15835 0.07477,0.033 0.159491,0.0494 0.254039,0.0494 h 0.709119 v 0.51462 h -0.768491 c -0.175915,0 -0.334316,-0.0275 -0.475038,-0.0824 -0.138527,-0.055 -0.260547,-0.14416 -0.366092,-0.26729 -0.200094,-0.23308 -0.300171,-0.56292 -0.300171,-0.9895 v -3.34439 h -0.972974 z m 6.299792,0 h 0.606882 v 5.13199 h -0.547501 l -0.05938,-0.46506 c -0.05058,0.088 -0.107832,0.16716 -0.171601,0.23752 -0.06376,0.0682 -0.140655,0.12757 -0.230806,0.17814 -0.167113,0.0967 -0.361737,0.14509 -0.583817,0.14509 -0.233084,0 -0.437684,-0.0462 -0.61359,-0.13855 -0.175906,-0.0924 -0.323094,-0.2199 -0.44183,-0.38261 -0.127531,-0.17371 -0.223319,-0.38029 -0.28708,-0.61997 -0.06377,-0.24187 -0.09553,-0.51124 -0.09553,-0.80808 0,-0.29245 0.03069,-0.5586 0.09225,-0.79827 0.06377,-0.24188 0.160622,-0.44846 0.290355,-0.61997 0.129733,-0.17151 0.284751,-0.29906 0.465055,-0.38261 0.180311,-0.0858 0.377072,-0.12874 0.590365,-0.12874 0.224282,0 0.419971,0.0473 0.587083,0.14182 0.169315,0.0968 0.30239,0.23643 0.399141,0.41893 z m -32.405668,0.20775 h 0.626681 l -2.592579,5.55092 h -0.629948 z m 15.346905,0 v 1.23028 h 1.378648 v 0.4716 h -1.378648 v 2.01858 c 0,0.27046 0.05156,0.46062 0.154909,0.57056 0.101148,0.10775 0.281493,0.16162 0.54096,0.16162 h 0.682779 v 0.48485 h -0.74216 c -0.452969,0 -0.773893,-0.0913 -0.962999,-0.27383 -0.186903,-0.18031 -0.280371,-0.49464 -0.280371,-0.9432 v -2.01858 h -0.986224 v -0.4716 h 0.986224 v -0.96643 z m 21.224481,0 h 0.626681 l -2.592579,5.55092 h -0.629947 z m -29.235973,1.14113 c 0.246275,0 0.461604,0.0407 0.646304,0.12203 0.186903,0.0814 0.346377,0.19908 0.478313,0.35301 0.131928,0.15392 0.232004,0.3407 0.300162,0.56058 0.07037,0.21769 0.105512,0.46742 0.105512,0.74887 v 0.29674 h -2.628727 v 0.0198 c 0,0.40239 0.105604,0.7135 0.316687,0.93339 0.101148,0.10554 0.223168,0.18689 0.366092,0.24406 0.145127,0.0572 0.3178,0.0859 0.517894,0.0859 0.200103,0 0.403463,-0.0309 0.610157,-0.0924 0.213285,-0.0638 0.438597,-0.15724 0.676078,-0.28037 v 0.60361 c -0.116542,0.0484 -0.229818,0.0901 -0.33976,0.1253 -0.109943,0.0352 -0.218763,0.065 -0.326502,0.0891 -0.105546,0.0242 -0.210982,0.0417 -0.316528,0.0527 -0.105545,0.011 -0.210077,0.0165 -0.31342,0.0165 -0.283654,0 -0.538749,-0.0428 -0.765225,-0.12857 -0.224282,-0.088 -0.415523,-0.21657 -0.573841,-0.38588 -0.158318,-0.16932 -0.279266,-0.37284 -0.362818,-0.61032 -0.08136,-0.23968 -0.122036,-0.51011 -0.122036,-0.81136 0,-0.31003 0.04175,-0.58155 0.125303,-0.81462 0.08356,-0.23528 0.19898,-0.43543 0.346301,-0.60034 0.160521,-0.17811 0.348538,-0.30995 0.564026,-0.3957 0.215487,-0.088 0.447558,-0.13201 0.696028,-0.13201 z m 4.030449,0 c 0.09455,0 0.189097,0.004 0.283646,0.0132 0.09455,0.009 0.188025,0.022 0.280371,0.0396 0.08356,0.0176 0.170437,0.0406 0.260589,0.0692 0.09235,0.0264 0.184583,0.0583 0.276937,0.0957 v 0.59364 c -0.175906,-0.10115 -0.350724,-0.17697 -0.524436,-0.22754 -0.08796,-0.0242 -0.176969,-0.0429 -0.267129,-0.0561 -0.08795,-0.0132 -0.182498,-0.0198 -0.283646,-0.0198 -0.127531,0 -0.242951,0.0111 -0.346293,0.033 -0.101149,0.022 -0.185882,0.055 -0.25404,0.099 -0.136333,0.0902 -0.204474,0.22752 -0.204474,0.41222 0,0.077 0.01213,0.14742 0.03631,0.21119 0.02639,0.0638 0.06492,0.11533 0.115495,0.15491 0.05057,0.0396 0.134063,0.0792 0.250597,0.11876 0.118745,0.0374 0.286963,0.077 0.504645,0.11875 l 0.244064,0.0461 c 0.158318,0.0308 0.293537,0.0748 0.405674,0.13201 0.112145,0.0572 0.205622,0.12746 0.28038,0.21102 0.153921,0.16931 0.230973,0.39371 0.230973,0.67297 0,0.1891 -0.03407,0.35394 -0.102237,0.49466 -0.06596,0.13853 -0.161743,0.25733 -0.28708,0.35628 -0.13413,0.10555 -0.291292,0.18351 -0.471604,0.23408 -0.178109,0.0506 -0.374869,0.0759 -0.590357,0.0759 -0.09675,0 -0.196828,-0.006 -0.300171,-0.0165 -0.101148,-0.009 -0.198913,-0.022 -0.293461,-0.0396 -0.08575,-0.0176 -0.186903,-0.0417 -0.303445,-0.0725 -0.11434,-0.0308 -0.229919,-0.0649 -0.346461,-0.10224 v -0.62667 c 0.14073,0.0704 0.260606,0.12531 0.359551,0.16489 0.09895,0.0374 0.195806,0.0693 0.290355,0.0957 0.101148,0.0286 0.198913,0.0505 0.293461,0.0659 0.09455,0.0154 0.192481,0.0231 0.29363,0.0231 0.266058,0 0.473714,-0.055 0.623238,-0.16489 0.07696,-0.0572 0.133142,-0.12424 0.168319,-0.2012 0.03518,-0.077 0.05267,-0.15509 0.05267,-0.23425 0,-0.15392 -0.06476,-0.27808 -0.194491,-0.37263 -0.129733,-0.0968 -0.334333,-0.17381 -0.613591,-0.23098 l -0.02634,-0.007 -0.227531,-0.0461 c -0.164918,-0.033 -0.312265,-0.077 -0.441998,-0.13201 -0.12753,-0.055 -0.235278,-0.12634 -0.323236,-0.21429 -0.160512,-0.16052 -0.240789,-0.38153 -0.240789,-0.66299 0,-0.17811 0.02962,-0.33527 0.08899,-0.4716 0.06157,-0.13633 0.151827,-0.25191 0.270564,-0.34646 0.125336,-0.10115 0.274827,-0.17359 0.448538,-0.21756 0.173704,-0.0462 0.368329,-0.0694 0.583817,-0.0694 z m 12.114562,0 c 0.263864,0 0.492551,0.043 0.686054,0.12874 0.195697,0.0836 0.359459,0.20664 0.491395,0.36936 0.270454,0.33423 0.405673,0.81248 0.405673,1.43476 0,0.31444 -0.03407,0.59362 -0.102237,0.83769 -0.06596,0.24407 -0.167112,0.44868 -0.303436,0.61359 -0.131936,0.16272 -0.29677,0.28581 -0.49467,0.36936 -0.195697,0.0836 -0.423321,0.1253 -0.682779,0.1253 -0.252875,0 -0.478179,-0.0407 -0.676078,-0.12203 -0.195697,-0.0836 -0.361771,-0.20772 -0.498104,-0.37263 -0.138527,-0.17151 -0.240748,-0.37826 -0.306711,-0.62013 -0.06596,-0.24408 -0.09896,-0.52004 -0.09896,-0.82788 0,-0.62447 0.135219,-1.1038 0.405674,-1.43803 0.270463,-0.33203 0.661849,-0.4981 1.174182,-0.4981 z m -22.019321,0.0892 h 0.629939 l 1.071944,3.10033 1.075212,-3.10033 h 0.629939 l -1.312559,3.69396 h -0.781749 z m 5.86106,0.42547 c -0.296845,0 -0.538732,0.0967 -0.725635,0.29019 -0.189105,0.1957 -0.301309,0.46399 -0.336485,0.80481 l 1.998779,-0.003 c -0.0044,-0.1891 -0.02972,-0.35072 -0.0759,-0.48485 -0.04398,-0.13633 -0.102145,-0.24638 -0.174708,-0.32994 -0.07916,-0.0923 -0.177087,-0.16157 -0.293621,-0.20774 -0.116542,-0.0462 -0.247306,-0.0692 -0.392433,-0.0692 z m 16.158261,0 c -0.307842,0 -0.540826,0.11971 -0.699144,0.35939 -0.158318,0.24187 -0.237515,0.59704 -0.237515,1.06539 0,0.46836 0.0792,0.82245 0.237515,1.06213 0.158318,0.24187 0.391302,0.36282 0.699144,0.36282 0.310037,0 0.544252,-0.12095 0.70257,-0.36282 0.158318,-0.23968 0.237523,-0.59377 0.237523,-1.06213 0,-0.46835 -0.07921,-0.82352 -0.237523,-1.06539 -0.158318,-0.23968 -0.392533,-0.35939 -0.70257,-0.35939 z m 8.028008,0 c -0.294651,0 -0.515667,0.11971 -0.662988,0.35939 -0.149524,0.24187 -0.224274,0.59704 -0.224274,1.06539 0,0.46836 0.07475,0.82352 0.224274,1.0654 0.07696,0.12533 0.171501,0.2165 0.283646,0.27367 0.112137,0.0572 0.23754,0.0859 0.376067,0.0859 0.296845,0 0.521085,-0.12095 0.672804,-0.36282 0.151718,-0.23968 0.227707,-0.59377 0.227707,-1.06213 0,-0.46835 -0.07599,-0.82352 -0.227707,-1.06539 -0.07036,-0.11215 -0.160454,-0.20009 -0.270396,-0.26386 -0.109943,-0.0638 -0.243018,-0.0955 -0.399133,-0.0955 z"
         id="rect6814-6-7-3-1-2-6-9-1"
         inkscape:connector-curvature="0"
         sodipodi:nodetypes="ccccccccccccccccccccccccccccccccccccccccccccccccccccccccccccscsccccccscscccccccccccccccccsccsccscccscscscccccccccscccscccccccscccscccccccscccscccccccscccccccccccccccccsccsccccccccccscccccsccsccsccsccccccccccscccscscscccccccccccccscsccscscccccccccccccccsccsccscccccsscccscccccccccccccsccscccccccscccsccccccccsccsccccccsccccccccscccscccsccccccccccccccccccccscscscscsccsccscscccc" />
    </g>
  </g>
</svg>
