<?xml version="1.0" encoding="UTF-8" standalone="no"?>
<svg
   xmlns:dc="http://purl.org/dc/elements/1.1/"
   xmlns:cc="http://creativecommons.org/ns#"
   xmlns:rdf="http://www.w3.org/1999/02/22-rdf-syntax-ns#"
   xmlns:svg="http://www.w3.org/2000/svg"
   xmlns="http://www.w3.org/2000/svg"
   id="svg920"
   version="1.1"
   viewBox="0 0 100 100"
   height="100mm"
   width="100mm">
  <defs
     id="defs914">
    <clipPath
       id="clipPath888"
       clipPathUnits="userSpaceOnUse">
      <path
         id="path886"
         d="M 0,500 H 1024 V 0 H 0 Z" />
    </clipPath>
  </defs>
  <metadata
     id="metadata917">
    <rdf:RDF>
      <cc:Work
         rdf:about="">
        <dc:format>image/svg+xml</dc:format>
        <dc:type
           rdf:resource="http://purl.org/dc/dcmitype/StillImage" />
        <dc:title></dc:title>
      </cc:Work>
    </rdf:RDF>
  </metadata>
  <g
     transform="translate(0,-197)"
     id="layer1">
    <g
       transform="matrix(0.35277777,0,0,-0.35277777,-43.586858,339.52831)"
       id="g882">
      <g
         clip-path="url(#clipPath888)"
         id="g884">
        <g
           style="fill:#ffffff"
           transform="matrix(1.0620904,0,0,1.0620846,391.3732,120.55269)"
           id="g890">
          <path
             id="path892"
             transform="matrix(0.75000002,0,0,-0.75000002,-252.163,841.88977)"
             d="M 19.640625,766.66016 C 8.7912919,766.66016 0,775.45145 0,786.30078 v 316.57812 c 0,10.8453 8.7912919,19.6406 19.640625,19.6406 H 190.07422 V 984.71289 h -46.37305 v -53.70703 h 46.37305 v -39.60547 c 0,-45.964 28.07217,-70.99219 69.07617,-70.99219 19.64,0 36.52141,1.4619 41.44141,2.11524 v 48.03515 l -28.44141,0.0137 c -22.29867,0 -26.61523,10.59519 -26.61523,26.14453 v 34.28906 h 53.18164 l -6.92383,53.70703 h -46.25781 v 137.80659 h 90.68164 c 10.84533,0 19.64062,-8.7953 19.64062,-19.6406 V 786.30078 c 0,-10.84933 -8.79529,-19.64062 -19.64062,-19.64062 z"
             style="fill:#ffffff;fill-opacity:1;fill-rule:nonzero;stroke:none;stroke-width:1.33333325" />
        </g>
        <g
           transform="translate(307.7046,120.5527)"
           id="g894" />
      </g>
    </g>
  </g>
</svg>
