<?xml version="1.0" encoding="UTF-8" standalone="no"?>
<!-- Created with Inkscape (http://www.inkscape.org/) -->

<svg
   xmlns:dc="http://purl.org/dc/elements/1.1/"
   xmlns:cc="http://creativecommons.org/ns#"
   xmlns:rdf="http://www.w3.org/1999/02/22-rdf-syntax-ns#"
   xmlns:svg="http://www.w3.org/2000/svg"
   xmlns="http://www.w3.org/2000/svg"
   xmlns:sodipodi="http://sodipodi.sourceforge.net/DTD/sodipodi-0.dtd"
   xmlns:inkscape="http://www.inkscape.org/namespaces/inkscape"
   width="194mm"
   height="50mm"
   viewBox="0 0 194 50"
   version="1.1"
   id="svg914"
   inkscape:version="0.92.2 5c3e80d, 2017-08-06"
   sodipodi:docname="insigno_logo.svg">
  <defs
     id="defs908" />
  <sodipodi:namedview
     id="base"
     pagecolor="#ffffff"
     bordercolor="#666666"
     borderopacity="1.0"
     inkscape:pageopacity="0.0"
     inkscape:pageshadow="2"
     inkscape:zoom="0.98994949"
     inkscape:cx="377.46408"
     inkscape:cy="57.355343"
     inkscape:document-units="mm"
     inkscape:current-layer="layer1"
     showgrid="false"
     inkscape:window-width="1920"
     inkscape:window-height="1061"
     inkscape:window-x="0"
     inkscape:window-y="1200"
     inkscape:window-maximized="0" />
  <metadata
     id="metadata911">
    <rdf:RDF>
      <cc:Work
         rdf:about="">
        <dc:format>image/svg+xml</dc:format>
        <dc:type
           rdf:resource="http://purl.org/dc/dcmitype/StillImage" />
        <dc:title></dc:title>
      </cc:Work>
    </rdf:RDF>
  </metadata>
  <g
     inkscape:label="Layer 1"
     inkscape:groupmode="layer"
     id="layer1"
     transform="translate(0,-247)">
    <path
       style="opacity:1;fill:#ffffff;fill-opacity:1;stroke:#000000;stroke-width:0;stroke-linecap:round;stroke-linejoin:bevel;stroke-miterlimit:4;stroke-dasharray:none;stroke-dashoffset:156.85040283;stroke-opacity:1;paint-order:markers stroke fill"
       d="M 25.243149,247 A 25.243238,24.999984 2.2621817e-4 0 0 4.9855638e-7,271.99989 25.243238,24.999984 2.2621817e-4 0 0 25.243149,297 25.243238,24.999984 2.2621817e-4 0 0 50.486529,271.9999 25.243238,24.999984 2.2621817e-4 0 0 25.243149,247 Z m -6e-6,2.48227 A 22.736818,22.517716 1.1464664e-4 0 1 47.980104,271.9999 22.736818,22.517716 1.1464664e-4 0 1 25.243149,294.51775 22.736818,22.517716 1.1464664e-4 0 1 2.5064217,271.9999 22.736818,22.517716 1.1464664e-4 0 1 25.243143,249.48227 Z"
       id="path6140"
       inkscape:connector-curvature="0" />
    <path
       inkscape:connector-curvature="0"
       id="path6142"
       d="m 25.243171,251.95689 c -11.177141,5e-5 -20.2379968,8.97359 -20.2380479,20.04302 -6.21e-5,11.06951 9.0608259,20.04317 20.2380479,20.04321 11.17729,6e-5 20.238291,-8.97362 20.238228,-20.04321 -4.8e-5,-11.0695 -9.061015,-20.04307 -20.238228,-20.04302 z m 0.43522,21.92544 c 10.067425,-7e-5 17.793501,-11.85283 17.793549,-1.88242 6.3e-5,9.97049 -8.161274,18.05318 -18.228769,18.05311 -10.067423,-3e-5 -18.2286455,-8.08269 -18.2285884,-18.0531 4.1e-5,-9.97035 8.5964604,1.88244 18.6638084,1.88241 z"
       style="opacity:1;fill:#ffffff;fill-opacity:1;stroke:#000000;stroke-width:0;stroke-linecap:round;stroke-linejoin:bevel;stroke-miterlimit:4;stroke-dasharray:none;stroke-dashoffset:156.85040283;stroke-opacity:1;paint-order:markers stroke fill"
       sodipodi:nodetypes="cccccccccc" />
    <text
       transform="scale(1.0055084,0.9945218)"
       xml:space="preserve"
       style="font-style:normal;font-weight:normal;font-size:8.66731262px;line-height:1.25;font-family:sans-serif;letter-spacing:0px;word-spacing:0px;fill:#ffffff;fill-opacity:1;stroke:#000000;stroke-width:0;stroke-miterlimit:4;stroke-dasharray:none;stroke-opacity:1;"
       x="49.249432"
       y="281.49957"
       id="text6146-1"><tspan
         sodipodi:role="line"
         id="tspan6144-7"
         x="49.249432"
         y="281.49957"
         style="font-style:normal;font-variant:normal;font-weight:normal;font-stretch:normal;font-size:34.66925049px;font-family:'DejaVu Sans Mono';-inkscape-font-specification:'DejaVu Sans Mono';fill:#ffffff;fill-opacity:1;stroke:#000000;stroke-width:0;stroke-miterlimit:4;stroke-dasharray:none;stroke-opacity:1;">insigno</tspan></text>
    <text
       transform="scale(1.0055084,0.9945218)"
       xml:space="preserve"
       style="font-style:normal;font-weight:normal;font-size:8.66731262px;line-height:1.25;font-family:sans-serif;letter-spacing:0px;word-spacing:0px;fill:#ffffff;fill-opacity:1;stroke:#000000;stroke-width:0;stroke-miterlimit:4;stroke-dasharray:none;stroke-opacity:1;"
       x="52.60635"
       y="289.44199"
       id="text6150-4"><tspan
         sodipodi:role="line"
         id="tspan6148-1"
         x="52.60635"
         y="289.44199"
         style="font-style:normal;font-variant:normal;font-weight:normal;font-stretch:normal;font-family:'DejaVu Sans';-inkscape-font-specification:'DejaVu Sans';fill:#ffffff;fill-opacity:1;stroke:#000000;stroke-width:0;stroke-miterlimit:4;stroke-dasharray:none;stroke-opacity:1;">software solutions</tspan></text>
    <ellipse
       style="opacity:1;fill:#ffffff;fill-opacity:1;stroke:#000000;stroke-width:0;stroke-linecap:round;stroke-linejoin:bevel;stroke-miterlimit:4;stroke-dasharray:none;stroke-dashoffset:156.85040283;stroke-opacity:1;paint-order:markers stroke fill"
       id="path6186"
       cx="15.200712"
       cy="276.99304"
       rx="4.0007868"
       ry="3.9622333" />
    <ellipse
       cy="277.24484"
       cx="35.18367"
       id="circle6188"
       style="opacity:1;fill:#ffffff;fill-opacity:1;stroke:#000000;stroke-width:0;stroke-linecap:round;stroke-linejoin:bevel;stroke-miterlimit:4;stroke-dasharray:none;stroke-dashoffset:156.85040283;stroke-opacity:1;paint-order:markers stroke fill"
       rx="4.0007868"
       ry="3.9622333" />
    <path
       inkscape:connector-curvature="0"
       id="path1623"
       d="M 25.243149,247 A 25.243238,24.999984 2.2621817e-4 0 0 4.9855638e-7,271.99989 25.243238,24.999984 2.2621817e-4 0 0 25.243149,297 25.243238,24.999984 2.2621817e-4 0 0 50.486529,271.9999 25.243238,24.999984 2.2621817e-4 0 0 25.243149,247 Z m -6e-6,2.48227 A 22.736818,22.517716 1.1464664e-4 0 1 47.980104,271.9999 22.736818,22.517716 1.1464664e-4 0 1 25.243149,294.51775 22.736818,22.517716 1.1464664e-4 0 1 2.5064217,271.9999 22.736818,22.517716 1.1464664e-4 0 1 25.243143,249.48227 Z"
       style="opacity:1;fill:#ffffff;fill-opacity:1;stroke:#000000;stroke-width:0;stroke-linecap:round;stroke-linejoin:bevel;stroke-miterlimit:4;stroke-dasharray:none;stroke-dashoffset:156.85040283;stroke-opacity:1;paint-order:markers stroke fill" />
    <path
       sodipodi:nodetypes="cccccccccc"
       style="opacity:1;fill:#ffffff;fill-opacity:1;stroke:#000000;stroke-width:0;stroke-linecap:round;stroke-linejoin:bevel;stroke-miterlimit:4;stroke-dasharray:none;stroke-dashoffset:156.85040283;stroke-opacity:1;paint-order:markers stroke fill"
       d="m 25.243171,251.95689 c -11.177141,5e-5 -20.2379968,8.97359 -20.2380479,20.04302 -6.21e-5,11.06951 9.0608259,20.04317 20.2380479,20.04321 11.17729,6e-5 20.238291,-8.97362 20.238228,-20.04321 -4.8e-5,-11.0695 -9.061015,-20.04307 -20.238228,-20.04302 z m 0.43522,21.92544 c 10.067425,-7e-5 17.793501,-11.85283 17.793549,-1.88242 6.3e-5,9.97049 -8.161274,18.05318 -18.228769,18.05311 -10.067423,-3e-5 -18.2286455,-8.08269 -18.2285884,-18.0531 4.1e-5,-9.97035 8.5964604,1.88244 18.6638084,1.88241 z"
       id="path1625"
       inkscape:connector-curvature="0" />
    <ellipse
       cy="276.99304"
       cx="15.200712"
       id="circle1627"
       style="opacity:1;fill:#ffffff;fill-opacity:1;stroke:#000000;stroke-width:0;stroke-linecap:round;stroke-linejoin:bevel;stroke-miterlimit:4;stroke-dasharray:none;stroke-dashoffset:156.85040283;stroke-opacity:1;paint-order:markers stroke fill"
       rx="4.0007868"
       ry="3.9622333" />
    <ellipse
       style="opacity:1;fill:#ffffff;fill-opacity:1;stroke:#000000;stroke-width:0;stroke-linecap:round;stroke-linejoin:bevel;stroke-miterlimit:4;stroke-dasharray:none;stroke-dashoffset:156.85040283;stroke-opacity:1;paint-order:markers stroke fill"
       id="circle1629"
       cx="35.18367"
       cy="277.24484"
       rx="4.0007868"
       ry="3.9622333" />
  </g>
</svg>
