<?xml version="1.0" encoding="UTF-8" standalone="no"?>
<svg
   xmlns:dc="http://purl.org/dc/elements/1.1/"
   xmlns:cc="http://creativecommons.org/ns#"
   xmlns:rdf="http://www.w3.org/1999/02/22-rdf-syntax-ns#"
   xmlns:svg="http://www.w3.org/2000/svg"
   xmlns="http://www.w3.org/2000/svg"
   id="svg914"
   version="1.1"
   viewBox="0 0 194 50"
   height="50mm"
   width="194mm">
  <defs
     id="defs908" />
  <metadata
     id="metadata911">
    <rdf:RDF>
      <cc:Work
         rdf:about="">
        <dc:format>image/svg+xml</dc:format>
        <dc:type
           rdf:resource="http://purl.org/dc/dcmitype/StillImage" />
        <dc:title></dc:title>
      </cc:Work>
    </rdf:RDF>
  </metadata>
  <g
     transform="translate(0,-247)"
     id="layer1">
    <path
       id="path6140"
       d="M 25.243149,247 A 25.243238,24.999984 2.2621817e-4 0 0 4.9855638e-7,271.99989 25.243238,24.999984 2.2621817e-4 0 0 25.243149,297 25.243238,24.999984 2.2621817e-4 0 0 50.486529,271.9999 25.243238,24.999984 2.2621817e-4 0 0 25.243149,247 Z m -6e-6,2.48227 A 22.736818,22.517716 1.1464664e-4 0 1 47.980104,271.9999 22.736818,22.517716 1.1464664e-4 0 1 25.243149,294.51775 22.736818,22.517716 1.1464664e-4 0 1 2.5064217,271.9999 22.736818,22.517716 1.1464664e-4 0 1 25.243143,249.48227 Z"
       style="opacity:1;fill:#154955;fill-opacity:1;stroke:#000000;stroke-width:0;stroke-linecap:round;stroke-linejoin:bevel;stroke-miterlimit:4;stroke-dasharray:none;stroke-dashoffset:156.85040283;stroke-opacity:1;paint-order:markers stroke fill" />
    <path
       style="opacity:1;fill:#154955;fill-opacity:1;stroke:#000000;stroke-width:0;stroke-linecap:round;stroke-linejoin:bevel;stroke-miterlimit:4;stroke-dasharray:none;stroke-dashoffset:156.85040283;stroke-opacity:1;paint-order:markers stroke fill"
       d="m 25.243171,251.95689 c -11.177141,5e-5 -20.2379968,8.97359 -20.2380479,20.04302 -6.21e-5,11.06951 9.0608259,20.04317 20.2380479,20.04321 11.17729,6e-5 20.238291,-8.97362 20.238228,-20.04321 -4.8e-5,-11.0695 -9.061015,-20.04307 -20.238228,-20.04302 z m 0.43522,21.92544 c 10.067425,-7e-5 17.793501,-11.85283 17.793549,-1.88242 6.3e-5,9.97049 -8.161274,18.05318 -18.228769,18.05311 -10.067423,-3e-5 -18.2286455,-8.08269 -18.2285884,-18.0531 4.1e-5,-9.97035 8.5964604,1.88244 18.6638084,1.88241 z"
       id="path6142" />
    <text
       id="text6146-1"
       y="281.23083"
       x="48.186211"
       style="font-style:normal;font-weight:normal;font-size:8.66731262px;line-height:1.25;font-family:sans-serif;letter-spacing:0px;word-spacing:0px;fill:#154955;fill-opacity:1;stroke:#000000;stroke-width:0;stroke-miterlimit:4;stroke-dasharray:none;stroke-opacity:1;"
       xml:space="preserve"
       transform="scale(1.0055084,0.99452179)"><tspan
         style="font-style:normal;font-variant:normal;font-weight:normal;font-stretch:normal;font-size:34.66925049px;font-family:'DejaVu Sans Mono';-inkscape-font-specification:'DejaVu Sans Mono';fill:#154955;fill-opacity:1;stroke:#000000;stroke-width:0;stroke-miterlimit:4;stroke-dasharray:none;stroke-opacity:1;"
         y="281.23083"
         x="48.186211"
         id="tspan6144-7">insigno</tspan></text>
    <text
       id="text6150-4"
       y="289.44199"
       x="52.60635"
       style="font-style:normal;font-weight:normal;font-size:8.66731262px;line-height:1.25;font-family:sans-serif;letter-spacing:0px;word-spacing:0px;fill:#154955;fill-opacity:1;stroke:#000000;stroke-width:0;stroke-miterlimit:4;stroke-dasharray:none;stroke-opacity:1;"
       xml:space="preserve"
       transform="scale(1.0055084,0.9945218)"><tspan
         style="font-style:normal;font-variant:normal;font-weight:normal;font-stretch:normal;font-family:'DejaVu Sans';-inkscape-font-specification:'DejaVu Sans';fill:#154955;fill-opacity:1;stroke:#000000;stroke-width:0;stroke-miterlimit:4;stroke-dasharray:none;stroke-opacity:1;"
         y="289.44199"
         x="52.60635"
         id="tspan6148-1">software solutions</tspan></text>
    <ellipse
       ry="3.9622333"
       rx="4.0007868"
       cy="276.99304"
       cx="15.200712"
       id="path6186"
       style="opacity:1;fill:#154955;fill-opacity:1;stroke:#000000;stroke-width:0;stroke-linecap:round;stroke-linejoin:bevel;stroke-miterlimit:4;stroke-dasharray:none;stroke-dashoffset:156.85040283;stroke-opacity:1;paint-order:markers stroke fill" />
    <ellipse
       ry="3.9622333"
       rx="4.0007868"
       style="opacity:1;fill:#154955;fill-opacity:1;stroke:#000000;stroke-width:0;stroke-linecap:round;stroke-linejoin:bevel;stroke-miterlimit:4;stroke-dasharray:none;stroke-dashoffset:156.85040283;stroke-opacity:1;paint-order:markers stroke fill"
       id="circle6188"
       cx="35.18367"
       cy="277.24484" />
    <path
       style="opacity:1;fill:#154955;fill-opacity:1;stroke:#000000;stroke-width:0;stroke-linecap:round;stroke-linejoin:bevel;stroke-miterlimit:4;stroke-dasharray:none;stroke-dashoffset:156.85040283;stroke-opacity:1;paint-order:markers stroke fill"
       d="M 25.243149,247 A 25.243238,24.999984 2.2621817e-4 0 0 4.9855638e-7,271.99989 25.243238,24.999984 2.2621817e-4 0 0 25.243149,297 25.243238,24.999984 2.2621817e-4 0 0 50.486529,271.9999 25.243238,24.999984 2.2621817e-4 0 0 25.243149,247 Z m -6e-6,2.48227 A 22.736818,22.517716 1.1464664e-4 0 1 47.980104,271.9999 22.736818,22.517716 1.1464664e-4 0 1 25.243149,294.51775 22.736818,22.517716 1.1464664e-4 0 1 2.5064217,271.9999 22.736818,22.517716 1.1464664e-4 0 1 25.243143,249.48227 Z"
       id="path1623" />
    <path
       id="path1625"
       d="m 25.243171,251.95689 c -11.177141,5e-5 -20.2379968,8.97359 -20.2380479,20.04302 -6.21e-5,11.06951 9.0608259,20.04317 20.2380479,20.04321 11.17729,6e-5 20.238291,-8.97362 20.238228,-20.04321 -4.8e-5,-11.0695 -9.061015,-20.04307 -20.238228,-20.04302 z m 0.43522,21.92544 c 10.067425,-7e-5 17.793501,-11.85283 17.793549,-1.88242 6.3e-5,9.97049 -8.161274,18.05318 -18.228769,18.05311 -10.067423,-3e-5 -18.2286455,-8.08269 -18.2285884,-18.0531 4.1e-5,-9.97035 8.5964604,1.88244 18.6638084,1.88241 z"
       style="opacity:1;fill:#154955;fill-opacity:1;stroke:#000000;stroke-width:0;stroke-linecap:round;stroke-linejoin:bevel;stroke-miterlimit:4;stroke-dasharray:none;stroke-dashoffset:156.85040283;stroke-opacity:1;paint-order:markers stroke fill" />
    <ellipse
       ry="3.9622333"
       rx="4.0007868"
       style="opacity:1;fill:#154955;fill-opacity:1;stroke:#000000;stroke-width:0;stroke-linecap:round;stroke-linejoin:bevel;stroke-miterlimit:4;stroke-dasharray:none;stroke-dashoffset:156.85040283;stroke-opacity:1;paint-order:markers stroke fill"
       id="circle1627"
       cx="15.200712"
       cy="276.99304" />
    <ellipse
       ry="3.9622333"
       rx="4.0007868"
       cy="277.24484"
       cx="35.18367"
       id="circle1629"
       style="opacity:1;fill:#154955;fill-opacity:1;stroke:#000000;stroke-width:0;stroke-linecap:round;stroke-linejoin:bevel;stroke-miterlimit:4;stroke-dasharray:none;stroke-dashoffset:156.85040283;stroke-opacity:1;paint-order:markers stroke fill" />
  </g>
</svg>
